<svg width="400" height="400" viewBox="0 0 400 400" xmlns="http://www.w3.org/2000/svg">
  <defs>
    <linearGradient id="skyGradient" x1="0%" y1="0%" x2="0%" y2="100%">
      <stop offset="0%" style="stop-color:#4facfe;stop-opacity:0.2" />
      <stop offset="100%" style="stop-color:#00f2fe;stop-opacity:0.1" />
    </linearGradient>
    <dropShadow id="shadow" dx="0" dy="4" stdDeviation="4" flood-color="#000000" flood-opacity="0.1"/>
  </defs>
  
  <rect width="100%" height="100%" fill="url(#skyGradient)" rx="20"/>

  <g filter="url(#shadow)">
    <path d="M 100 120 L 300 120 L 320 380 L 80 380 Z" fill="#FFFFFF" stroke="#E0E0E0" stroke-width="1"/>
    
    <path d="M 100 200 L 80 200 L 60 380 L 80 380 Z" fill="#F5F5F5" stroke="#E0E0E0" stroke-width="1"/>
    
    <path d="M 300 200 L 320 200 L 340 380 L 320 380 Z" fill="#F5F5F5" stroke="#E0E0E0" stroke-width="1"/>
    
    <path d="M 100 120 L 150 70 L 250 70 L 300 120 Z" fill="#2C3E50"/>
    
    <path d="M 160 380 L 180 340 L 220 340 L 240 380 Z" fill="#2C3E50"/>
  </g>
  
  <g fill="#A9CCE3">
    <rect x="125" y="145" width="20" height="30" rx="2"/>
    <rect x="155" y="145" width="20" height="30" rx="2"/>
    <rect x="185" y="145" width="20" height="30" rx="2"/>
    <rect x="215" y="145" width="20" height="30" rx="2"/>
    <rect x="245" y="145" width="20" height="30" rx="2"/>
    
    <rect x="125" y="190" width="20" height="30" rx="2"/>
    <rect x="155" y="190" width="20" height="30" rx="2"/>
    <rect x="185" y="190" width="20" height="30" rx="2"/>
    <rect x="215" y="190" width="20" height="30" rx="2"/>
    <rect x="245" y="190" width="20" height="30" rx="2"/>
    
    <rect x="125" y="235" width="20" height="30" rx="2"/>
    <rect x="155" y="235" width="20" height="30" rx="2"/>
    <rect x="185" y="235" width="20" height="30" rx="2"/>
    <rect x="215" y="235" width="20" height="30" rx="2"/>
    <rect x="245" y="235" width="20" height="30" rx="2"/>
    
    <rect x="125" y="280" width="20" height="30" rx="2"/>
    <rect x="155" y="280" width="20" height="30" rx="2"/>
    <rect x="185" y="280" width="20" height="30" rx="2"/>
    <rect x="215" y="280" width="20" height="30" rx="2"/>
    <rect x="245" y="280" width="20" height="30" rx="2"/>

    <rect x="75" y="210" width="10" height="15" rx="1"/>
    <rect x="73" y="240" width="10" height="15" rx="1"/>
    <rect x="71" y="270" width="10" height="15" rx="1"/>
    <rect x="69" y="300" width="10" height="15" rx="1"/>

    <rect x="315" y="210" width="10" height="15" rx="1"/>
    <rect x="317" y="240" width="10" height="15" rx="1"/>
    <rect x="319" y="270" width="10" height="15" rx="1"/>
    <rect x="321" y="300" width="10" height="15" rx="1"/>
  </g>
  
  <rect x="185" y="345" width="30" height="35" rx="2" fill="#EAECEE"/>
  <rect x="190" y="350" width="20" height="30" rx="1" fill="#F4F6F7"/>

  <circle cx="200" cy="95" r="15" fill="#F1C40F"/>


  <g fill="#F1C40F">
    <path d="M 160 305 L 163 310 L 168 310 L 164 313 L 165 318 L 160 315 L 155 318 L 156 313 L 152 310 L 157 310 Z"/>
    <path d="M 180 305 L 183 310 L 188 310 L 184 313 L 185 318 L 180 315 L 175 318 L 176 313 L 172 310 L 177 310 Z"/>
    <path d="M 200 305 L 203 310 L 208 310 L 204 313 L 205 318 L 200 315 L 195 318 L 196 313 L 192 310 L 197 310 Z"/>
    <path d="M 220 305 L 223 310 L 228 310 L 224 313 L 225 318 L 220 315 L 215 318 L 216 313 L 212 310 L 217 310 Z"/>
    <path d="M 240 305 L 243 310 L 248 310 L 244 313 L 245 318 L 240 315 L 235 318 L 236 313 L 232 310 L 237 310 Z"/>
  </g>

</svg>
